# xmcd CD database file
#
# Track frame offsets:
#	150
#	20818
#	41503
#	62353
#	76468
#	93819
#	109667
#	126301
#	147556
#	166789
#	187998
#	203352
#	222399
#	235624
#	260675
#
# Disc length: 3696 seconds
#
# Revision: 0
# Processed by: cddbd v1.5.2PL0 Copyright (c) Steve Scherf et al.
# Submitted via: CDex 1.51
#
DISCID=c80e6e0f
DTITLE=Wall Street Dixies - Black Jazz
DYEAR=2004
DGENRE=Jazz
TTITLE0=Isle of Capri
TTITLE1=New York town
TTITLE2=Sheik of Araby
TTITLE3=Your feet`s too big
TTITLE4=Charleston
TTITLE5=A song was born
TTITLE6=Dr. Jazz
TTITLE7=I`m gonna sit right down and write myself a letter
TTITLE8=Running wild
TTITLE9=Sweet Sue
TTITLE10=Ol` man mose
TTITLE11=Just a gigolo
TTITLE12=Lover come back to me
TTITLE13=King Louis
TTITLE14=So do I
EXTD=YEAR: 2004
EXTT0=
EXTT1=
EXTT2=
EXTT3=
EXTT4=
EXTT5=
EXTT6=
EXTT7=
EXTT8=
EXTT9=
EXTT10=
EXTT11=
EXTT12=
EXTT13=
EXTT14=
PLAYORDER=
